<svg width="41" height="46" viewBox="0 0 41 46" fill="none" xmlns="http://www.w3.org/2000/svg">
<path id="Arrow 1" d="M4.44059 37.5572L4.4799 36.5579L4.4799 36.5579L4.44059 37.5572ZM0.512046 36.695C0.106473 37.0698 0.08158 37.7025 0.456451 38.1081L6.56531 44.7173C6.94018 45.1229 7.57286 45.1478 7.97843 44.7729C8.38401 44.398 8.4089 43.7654 8.03403 43.3598L2.60393 37.4849L8.4788 32.0548C8.88437 31.6799 8.90926 31.0473 8.53439 30.6417C8.15952 30.2361 7.52685 30.2112 7.12127 30.5861L0.512046 36.695ZM4.4799 36.5579L1.23012 36.4301L1.1515 38.4285L4.40128 38.5564L4.4799 36.5579ZM38.7866 0.587361C40.5133 20.461 24.413 37.3422 4.4799 36.5579L4.40128 38.5564C25.5378 39.388 42.61 21.4877 40.7791 0.414247L38.7866 0.587361Z" fill="#181818"/>
</svg>
