<svg width="88" height="88" viewBox="0 0 88 88" fill="none" xmlns="http://www.w3.org/2000/svg">
<g id="Discord - Original" clip-path="url(#clip0_2_125)">
<path id="Vector" d="M74.4957 15.2372C68.8869 12.6636 62.8723 10.7675 56.5836 9.68156C56.4691 9.6606 56.3547 9.71298 56.2957 9.81773C55.5222 11.1935 54.6654 12.9883 54.0653 14.3991C47.3015 13.3865 40.5723 13.3865 33.9472 14.3991C33.347 12.957 32.4591 11.1935 31.6821 9.81773C31.6231 9.71647 31.5087 9.66409 31.3942 9.68156C25.109 10.7641 19.0944 12.6601 13.4821 15.2372C13.4335 15.2581 13.3919 15.2931 13.3642 15.3384C1.95577 32.3824 -1.16948 49.0075 0.36366 65.4264C0.370598 65.5068 0.415689 65.5836 0.478126 65.6324C8.0051 71.1601 15.2963 74.5158 22.452 76.7401C22.5665 76.7751 22.6879 76.7332 22.7608 76.6389C24.4535 74.3273 25.9624 71.89 27.2561 69.3268C27.3324 69.1767 27.2595 68.9986 27.1035 68.9392C24.7102 68.0314 22.4312 66.9244 20.239 65.6674C20.0656 65.5661 20.0517 65.3181 20.2112 65.1994C20.6726 64.8537 21.134 64.494 21.5745 64.1309C21.6542 64.0645 21.7652 64.0505 21.859 64.0924C36.2607 70.6678 51.8523 70.6678 66.0842 64.0924C66.1779 64.0471 66.2889 64.0611 66.3721 64.1274C66.8127 64.4905 67.274 64.8537 67.7388 65.1994C67.8983 65.3181 67.8879 65.5661 67.7145 65.6674C65.5223 66.9488 63.2434 68.0314 60.8465 68.9358C60.6905 68.9951 60.6211 69.1767 60.6974 69.3268C62.0189 71.8864 63.5278 74.3237 65.1893 76.6354C65.2587 76.7332 65.3835 76.7751 65.498 76.7401C72.6885 74.5158 79.9796 71.1601 87.5066 65.6324C87.5725 65.5836 87.6142 65.5102 87.6211 65.4299C89.456 46.4478 84.5478 29.9591 74.6101 15.3419C74.5858 15.2931 74.5443 15.2581 74.4957 15.2372ZM29.4067 55.429C25.0708 55.429 21.4982 51.4483 21.4982 46.5596C21.4982 41.6709 25.0015 37.6902 29.4067 37.6902C33.8465 37.6902 37.3846 41.7058 37.3152 46.5596C37.3152 51.4483 33.8118 55.429 29.4067 55.429ZM58.6474 55.429C54.3116 55.429 50.7389 51.4483 50.7389 46.5596C50.7389 41.6709 54.2422 37.6902 58.6474 37.6902C63.0873 37.6902 66.6253 41.7058 66.556 46.5596C66.556 51.4483 63.0873 55.429 58.6474 55.429Z" fill="#5865F2"/>
</g>
<defs>
<clipPath id="clip0_2_125">
<rect width="88" height="88" fill="white"/>
</clipPath>
</defs>
</svg>
