<svg width="88" height="88" viewBox="0 0 88 88" fill="none" xmlns="http://www.w3.org/2000/svg">
<g id="Figma - Original" clip-path="url(#clip0_2_112)">
<path id="path0 fill 1" d="M29.3336 88.0001C37.4296 88.0001 44.0005 81.4293 44.0005 73.3333V58.6665H29.3336C21.2375 58.6665 14.6667 65.2373 14.6667 73.3333C14.6667 81.4293 21.2375 88.0001 29.3336 88.0001Z" fill="#0ACF83"/>
<path id="path1 fill 3" d="M14.6667 44C14.6667 35.904 21.2375 29.3333 29.3336 29.3333H44.0005V58.6665H29.3336C21.2375 58.6668 14.6667 52.096 14.6667 44Z" fill="#A259FF"/>
<path id="path1 fill 2" d="M14.6667 14.6668C14.6667 6.57078 21.2375 0 29.3336 0H44.0005V29.3332H29.3336C21.2375 29.3332 14.6667 22.7628 14.6667 14.6668Z" fill="#F24E1E"/>
<path id="path2 fill 1" d="M43.9996 0H58.6665C66.7625 0 73.3334 6.57078 73.3334 14.6668C73.3334 22.7628 66.7625 29.3332 58.6665 29.3332H43.9996V0Z" fill="#FF7262"/>
<path id="path3 fill 1" d="M73.3334 44C73.3334 52.096 66.7625 58.6668 58.6665 58.6668C50.5704 58.6668 43.9996 52.096 43.9996 44C43.9996 35.904 50.5704 29.3333 58.6665 29.3333C66.7625 29.3333 73.3334 35.904 73.3334 44Z" fill="#1ABCFE"/>
</g>
<defs>
<clipPath id="clip0_2_112">
<rect width="88" height="88" fill="white"/>
</clipPath>
</defs>
</svg>
