<svg width="88" height="88" viewBox="0 0 88 88" fill="none" xmlns="http://www.w3.org/2000/svg">
<g id="Reddit - Original" clip-path="url(#clip0_2_148)">
<path id="Vector" d="M44 88C68.3005 88 88 68.3005 88 44C88 19.6995 68.3005 0 44 0C19.6995 0 0 19.6995 0 44C0 68.3005 19.6995 88 44 88Z" fill="#FF4500"/>
<path id="Vector_2" d="M73.3333 43.9999C73.3333 40.449 70.4514 37.5671 66.9005 37.5671C65.1508 37.5671 63.607 38.2361 62.4748 39.3683C58.1005 36.2291 52.028 34.1707 45.338 33.9133L48.2713 20.173L57.7918 22.18C57.8947 24.5987 59.9017 26.5543 62.3719 26.5543C64.8935 26.5543 66.952 24.4958 66.952 21.9742C66.952 19.4525 64.8935 17.394 62.3719 17.394C60.5707 17.394 59.0268 18.4233 58.3064 19.9671L47.6537 17.7028C47.345 17.6514 47.0362 17.7028 46.7789 17.8572C46.5216 18.0116 46.3672 18.2689 46.2643 18.5777L43.0222 33.9133C36.1777 34.1192 30.0537 36.1262 25.628 39.3683C24.4958 38.2876 22.9005 37.5671 21.2023 37.5671C17.6514 37.5671 14.7695 40.449 14.7695 43.9999C14.7695 46.6245 16.3134 48.8373 18.5777 49.8666C18.4748 50.4841 18.4233 51.1531 18.4233 51.8221C18.4233 61.7028 29.8994 69.6794 44.1029 69.6794C58.3064 69.6794 69.7824 61.7028 69.7824 51.8221C69.7824 51.1531 69.7309 50.5356 69.628 49.918C71.738 48.8888 73.3333 46.6245 73.3333 43.9999ZM29.3333 48.58C29.3333 46.0584 31.3918 43.9999 33.9134 43.9999C36.435 43.9999 38.4935 46.0584 38.4935 48.58C38.4935 51.1017 36.435 53.1601 33.9134 53.1601C31.3918 53.1601 29.3333 51.1017 29.3333 48.58ZM54.9099 60.6736C51.7707 63.8128 45.8011 64.0186 44.0514 64.0186C42.3017 64.0186 36.2806 63.7613 33.1929 60.6736C32.7298 60.2104 32.7298 59.4385 33.1929 58.9753C33.6561 58.5122 34.428 58.5122 34.8912 58.9753C36.8467 60.9309 41.0666 61.6514 44.1029 61.6514C47.1391 61.6514 51.3075 60.9309 53.3146 58.9753C53.7777 58.5122 54.5497 58.5122 55.0128 58.9753C55.373 59.49 55.373 60.2104 54.9099 60.6736ZM54.0865 53.1601C51.5649 53.1601 49.5064 51.1017 49.5064 48.58C49.5064 46.0584 51.5649 43.9999 54.0865 43.9999C56.6081 43.9999 58.6666 46.0584 58.6666 48.58C58.6666 51.1017 56.6081 53.1601 54.0865 53.1601Z" fill="white"/>
</g>
<defs>
<clipPath id="clip0_2_148">
<rect width="88" height="88" fill="white"/>
</clipPath>
</defs>
</svg>
