<svg width="88" height="88" viewBox="0 0 88 88" fill="none" xmlns="http://www.w3.org/2000/svg">
<g id="Spotify - Original">
<path id="Vector" d="M44 0C19.7 0 0 19.698 0 44C0 68.302 19.7 88 44 88C68.3 88 88 68.302 88 44C88 19.698 68.3 0 44 0ZM65.4666 63.4287C64.76 64.68 63.46 65.384 62.12 65.384C61.4934 65.384 60.8467 65.2273 60.2533 64.8973C54.76 61.8173 48.7734 59.9307 42.4467 59.29C36.1067 58.6547 29.8467 59.298 23.8333 61.218C21.8267 61.8587 19.6667 60.75 19.0267 58.74C18.38 56.7267 19.4933 54.574 21.5067 53.93C28.52 51.6893 35.8333 50.9273 43.22 51.678C50.5933 52.4287 57.58 54.6287 63.9933 58.2233C65.84 59.2513 66.5 61.5833 65.4666 63.4287ZM70.7333 50.064C70.0533 51.3727 68.72 52.1233 67.34 52.1233C66.74 52.1233 66.14 51.986 65.5733 51.6893C58.82 48.172 51.5266 45.994 43.88 45.218C36.1733 44.4293 28.54 45.1167 21.18 47.2393C19.1467 47.8167 17.0267 46.654 16.4467 44.6213C15.86 42.592 17.0333 40.472 19.06 39.886C27.3666 37.4907 35.98 36.7233 44.6533 37.6033C53.2667 38.4807 61.4934 40.934 69.1134 44.9047C70.98 45.8813 71.7133 48.1907 70.7333 50.064ZM72.64 38.9453C72.0666 38.9453 71.4867 38.816 70.9333 38.544C62.92 34.548 54.3 32.0593 45.3066 31.1467C36.3 30.2253 27.34 30.9373 18.6667 33.2533C16.6267 33.7947 14.5333 32.5847 13.9867 30.5413C13.44 28.5007 14.6534 26.4027 16.7 25.858C26.2667 23.3033 36.16 22.5253 46.0867 23.5347C56 24.538 65.5067 27.2853 74.3467 31.694C76.24 32.6367 77.0067 34.936 76.0667 36.8253C75.4 38.17 74.0466 38.9453 72.64 38.9453Z" fill="#1ED760"/>
</g>
</svg>
