<svg width="88" height="88" viewBox="0 0 88 88" fill="none" xmlns="http://www.w3.org/2000/svg">
<g id="TikTok - Original">
<path id="Vector" d="M62.9806 31.7662C68.6395 35.8258 75.572 38.2145 83.0594 38.2145V23.7551C81.6424 23.7554 80.229 23.6071 78.8427 23.3123V34.6939C71.3559 34.6939 64.4243 32.3053 58.7639 28.246V57.7534C58.7639 72.5145 46.8402 84.4798 32.1324 84.4798C26.6446 84.4798 21.5439 82.8148 17.3068 79.9593C22.1428 84.9217 28.887 88.0001 36.3482 88.0001C51.0569 88.0001 62.9812 76.0347 62.9812 61.273V31.7662H62.9806ZM68.1823 17.1785C65.2903 14.0077 63.3914 9.90997 62.9806 5.3798V3.52002H58.9846C59.9905 9.27786 63.4212 14.197 68.1823 17.1785ZM26.6094 68.6321C24.9936 66.5059 24.1204 63.905 24.1243 61.2307C24.1243 54.4796 29.5782 49.0056 36.3067 49.0056C37.5607 49.0053 38.8071 49.198 40.0021 49.5785V34.796C38.6056 34.6039 37.1961 34.5224 35.7873 34.5523V46.0583C34.5913 45.6777 33.3443 45.4845 32.09 45.4857C25.3615 45.4857 19.9079 50.959 19.9079 57.7111C19.9079 62.4853 22.634 66.6186 26.6094 68.6321Z" fill="#FF004F"/>
<path id="Vector_2" d="M58.7637 28.2457C64.4242 32.305 71.3557 34.6936 78.8426 34.6936V23.312C74.6635 22.4187 70.9638 20.227 68.1822 17.1785C63.4207 14.1967 59.9903 9.27756 58.9845 3.52002H48.4883V61.2724C48.4645 68.0051 43.02 73.4567 36.3059 73.4567C32.3494 73.4567 28.8345 71.564 26.6084 68.6321C22.6332 66.6186 19.9072 62.485 19.9072 57.7114C19.9072 50.9599 25.3607 45.486 32.0892 45.486C33.3784 45.486 34.6209 45.6874 35.7865 46.0586V34.5526C21.3371 34.8522 9.71631 46.7007 9.71631 61.2727C9.71631 68.5469 12.6102 75.1413 17.3069 79.9596C21.5441 82.8148 26.6447 84.4801 32.1326 84.4801C46.8406 84.4801 58.764 72.5142 58.764 57.7534V28.2457H58.7637Z" fill="black"/>
<path id="Vector_3" d="M78.8426 23.3119V20.2344C75.0741 20.2402 71.3796 19.181 68.1822 17.1781C71.0126 20.2879 74.7396 22.4322 78.8426 23.3119ZM58.9846 3.51994C58.8886 2.96968 58.8149 2.41579 58.7638 1.85978V0H44.2714V57.753C44.2482 64.4848 38.804 69.9364 32.0893 69.9364C30.118 69.9364 28.2567 69.4668 26.6084 68.6323C28.8345 71.5639 32.3495 73.4563 36.306 73.4563C43.0195 73.4563 48.4649 68.0053 48.4884 61.2726V3.51994H58.9846ZM35.7872 34.5525V31.2763C34.5762 31.1102 33.3553 31.0268 32.1329 31.0274C17.4237 31.0271 5.5 42.9931 5.5 57.753C5.5 67.0066 10.1862 75.1618 17.3073 79.959C12.6105 75.141 9.7167 68.5462 9.7167 61.2723C9.7167 46.7006 21.3372 34.8521 35.7872 34.5525Z" fill="#00F2EA"/>
</g>
</svg>
